<svg width="249" height="74" viewBox="0 0 249 74" fill="none" xmlns="http://www.w3.org/2000/svg">
<path d="M36.6247 73.129C16.4298 73.129 0 56.7253 0 36.5623C0 16.3993 16.4298 0 36.6247 0C56.8196 0 73.2487 16.404 73.2487 36.567C73.2487 44.8474 70.5453 52.6569 65.4308 59.1516C65.0128 59.6815 64.2515 59.791 63.7009 59.3993C60.9904 57.47 57.5926 51.1216 56.1747 48.0341C52.2579 39.5062 50.652 35.2628 50.4313 34.6691C50.3657 34.5152 50.3298 34.3469 50.3298 34.1728V34.1683C50.3298 33.8165 50.4749 33.4939 50.7131 33.2626C51.3774 32.4968 52.6538 30.051 51.4309 23.1632C50.2075 16.2463 47.5055 12.6809 43.1712 12.2627C33.5879 11.3369 30.2191 13.8662 26.8099 17.27C23.472 20.6027 20.0165 21.6425 17.4933 22.4017C16.3154 22.7562 15.2981 23.0623 14.8257 23.4684C14.3008 23.9207 13.4803 26.176 13.7877 28.8708C14.0223 30.9285 14.9603 33.7281 18.0974 35.3803C20.7111 36.7579 25.9405 36.4726 27.7355 36.2459C28.3193 36.1717 28.8764 36.5096 29.0807 37.0602C29.1879 37.3483 29.5135 38.2249 27.8555 48.693C27.4111 51.5026 27.216 53.6095 27.1461 55.1456C30.6362 50.2773 37.4018 41.7768 42.0911 41.773H42.0921C42.4273 41.773 42.7491 41.9061 42.9865 42.1427C43.2242 42.3797 43.3577 42.7012 43.3577 43.0366V44.9516C45.2889 45.2078 47.8597 46.3372 48.9118 49.4882C49.5828 51.5001 50.1738 52.1229 50.6489 52.6235C50.9298 52.9194 51.2201 53.2254 51.4421 53.6856C51.9203 54.6755 51.7041 56.4345 50.9284 57.8682C49.9805 59.6196 48.3033 60.7355 46.2058 61.0107C42.5383 61.4903 42.6444 62.7136 42.9964 66.7674C43.1168 68.1522 43.253 69.7214 43.2143 71.4934C43.2013 72.1077 42.7469 72.6238 42.1384 72.7153C40.3186 72.99 38.4633 73.129 36.6247 73.129ZM36.6247 2.52725C17.8255 2.52725 2.53122 17.7953 2.53122 36.5623C2.53122 55.3293 17.8255 70.6018 36.6247 70.6018C37.9766 70.6018 39.3379 70.521 40.6849 70.3613C40.662 69.1416 40.5635 68.0108 40.4746 66.9859C40.1317 63.0326 39.8072 59.2987 45.8763 58.505C47.0556 58.3502 47.9487 57.8274 48.5302 56.9514C49.1648 55.9959 49.1945 55.0021 49.1451 54.7511C49.0898 54.6568 48.9828 54.5424 48.8111 54.3616C48.2327 53.7519 47.3586 52.8305 46.5105 50.2866C45.4997 47.2593 42.5334 47.4038 42.1999 47.4293C41.8494 47.4587 41.4966 47.3371 41.2373 47.0979C40.9784 46.8588 40.8265 46.5226 40.8265 46.1704V44.5985C36.9182 46.248 30.556 54.3649 27.0967 59.6872C26.8254 60.1046 26.3338 60.3236 25.8425 60.2482C25.3504 60.1728 24.9481 59.816 24.8154 59.3368C24.7367 59.0536 24.0837 56.3366 25.3553 48.2983C26.2117 42.8913 26.5104 40.1976 26.6095 38.8846C24.2978 39.0399 19.7527 39.1108 16.9159 37.6152C13.7062 35.9248 11.702 32.9208 11.2728 29.1566C10.9197 26.0604 11.7366 22.792 13.173 21.5542C14.0536 20.7972 15.3091 20.4194 16.7631 19.9819C19.1552 19.2621 22.1322 18.3665 25.0203 15.4829C28.7744 11.7345 32.7474 8.71629 43.4148 9.74704C48.9595 10.2822 52.4952 14.6478 53.9235 22.7227C54.8776 28.0979 54.568 32.1001 53.0327 34.3852C53.6184 35.8912 55.2817 40.0267 58.4758 46.9806C60.0637 50.4388 62.4686 54.546 64.2623 56.5038C68.4901 50.6829 70.7175 43.8193 70.7175 36.5669C70.7175 17.7975 55.4237 2.52725 36.6247 2.52725Z" fill="#004339"/>
<path d="M49.2438 36.4795C48.6179 36.4795 47.9598 36.3555 47.2924 36.1074C44.2182 34.9494 41.3418 30.892 41.2129 25.6537L43.2839 25.594C43.3806 29.5779 45.8519 32.8679 48.1853 33.7455C49.2162 34.1315 50.0446 33.9891 50.6613 33.3228L52.5206 35.0367C51.6369 35.9925 50.4956 36.4887 49.2392 36.4887L49.2438 36.4795Z" fill="#004339"/>
<path d="M121.159 25.3252V29.6123H120.956C119.014 27.3883 116.101 26.1752 112.617 26.1752C106.385 26.1752 102.174 30.421 102.174 36.5645C102.174 42.708 106.385 46.9538 112.617 46.9538C116.059 46.9538 118.972 45.7821 120.956 43.5167H121.159V47.8039C119.014 49.504 116.137 50.3908 112.456 50.3908C103.997 50.3908 98.2487 44.6517 98.2487 36.5645C98.2487 28.4773 103.997 22.7382 112.456 22.7382C116.262 22.7382 119.014 23.5883 121.159 25.3252Z" fill="#004339"/>
<path d="M141.638 49.9865L141.519 46.9952H141.436C140.018 49.0997 137.427 50.3909 134.109 50.3909C128.605 50.3909 124.638 46.2692 124.638 40.5254C124.638 34.7817 128.605 30.66 134.109 30.66C137.427 30.66 140.018 31.9558 141.436 34.097H141.519L141.638 31.0643H144.552V49.9865H141.638ZM141.233 40.53C141.233 36.5277 138.523 33.7386 134.675 33.7386C130.828 33.7386 128.117 36.5277 128.117 40.53C128.117 44.5322 130.786 47.3214 134.675 47.3214C138.564 47.3214 141.233 44.5322 141.233 40.53Z" fill="#004339"/>
<path d="M161.837 31.3905V34.8276H161.676C160.866 34.2624 159.854 33.9362 158.722 33.9362C155.077 33.9362 153.337 36.445 153.337 41.3755V49.9865H149.895V31.0643H152.808L152.891 34.097H152.974C154.106 31.8317 156.089 30.6599 158.966 30.6599C160.222 30.6599 161.193 30.9816 161.837 31.386V31.3905Z" fill="#004339"/>
<path d="M182.639 38.9907V49.9865H179.197V39.395C179.197 35.8385 177.255 33.734 174.056 33.734C170.536 33.734 168.428 36.1602 168.428 40.1624V49.9865H164.985V31.0643H167.899L167.981 34.0556H168.064C169.357 31.9144 171.668 30.6599 174.866 30.6599C179.685 30.6599 182.639 33.8121 182.639 38.9861V38.9907Z" fill="#004339"/>
<path d="M191.462 25.123C191.462 26.4555 190.532 27.3883 189.193 27.3883C187.854 27.3883 186.929 26.4601 186.929 25.123C186.929 23.7858 187.858 22.8577 189.193 22.8577C190.528 22.8577 191.462 23.7858 191.462 25.123ZM187.495 31.0689H190.937V49.9911H187.495V31.0689Z" fill="#004339"/>
<path d="M211.417 32.5209V36.2796H211.256C209.797 34.5427 207.938 33.734 205.549 33.734C201.219 33.734 198.508 36.4818 198.508 40.5254C198.508 44.569 201.219 47.3168 205.549 47.3168C207.979 47.3168 209.88 46.4667 211.256 44.7712H211.417V48.5712C209.958 49.7843 207.896 50.3908 205.223 50.3908C199.069 50.3908 195.024 46.2691 195.024 40.5254C195.024 34.7817 199.074 30.6599 205.223 30.6599C207.855 30.6599 209.958 31.2665 211.417 32.5209Z" fill="#004339"/>
<path d="M227.93 31.3905V34.8276H227.769C226.959 34.2624 225.946 33.9362 224.814 33.9362C221.169 33.9362 219.43 36.445 219.43 41.3755V49.9865H215.987V31.0643H218.9L218.983 34.097H219.066C220.198 31.8317 222.182 30.6599 225.058 30.6599C226.314 30.6599 227.286 30.9816 227.93 31.386V31.3905Z" fill="#004339"/>
<path d="M245.335 49.9865L245.253 46.9952H245.17C243.877 49.1365 241.566 50.3909 238.368 50.3909C233.549 50.3909 230.595 47.2801 230.595 42.0648V31.069H234.037V41.7018C234.037 45.2583 235.979 47.3214 239.178 47.3214C242.698 47.3214 244.806 44.8953 244.806 40.893V31.069H248.249V49.9911H245.335V49.9865Z" fill="#004339"/>
</svg>
