<svg width="172" height="116" viewBox="0 0 172 116" fill="none" xmlns="http://www.w3.org/2000/svg">
<g clip-path="url(#clip0_28_270)">
<path d="M158.136 7.62939e-06L159.954 3.5545C146.891 10.2847 138.096 18.7691 132.5 27.6621C151.066 33.8746 167.736 49.6421 170.943 64.163C173.667 76.4962 166.319 85.951 150.783 90.1033C139.229 93.1896 128.383 86.3634 123.151 72.7083C119.042 61.9811 118.532 45.7391 126.502 30.1308C121.119 28.8623 115.697 28.5322 110.563 29.4507C94.0613 32.3996 75.6832 42.2591 60.1418 56.5018C60.0341 56.6001 59.9261 56.6996 59.8188 56.7983C67.4949 57.3844 75.0391 59.5276 81.829 64.0166C93.0823 71.4565 95.6191 82.6867 88.6142 94.0573C78.6836 110.177 52.9951 121.978 37.1689 112.769C31.1575 109.27 28.7498 103.042 30.2053 94.7581C31.9923 84.5888 39.3912 72.3395 50.0168 60.9397C26.0765 62.9604 2.95319 77.3873 2.62285 77.5964L0.499985 74.2166C1.97803 73.2806 28.0082 57.0523 54.2248 56.6355C69.4478 41.776 89.8785 29.0885 109.866 25.5168C115.919 24.4363 122.285 24.8925 128.527 26.4883C134.431 16.6905 143.887 7.34122 158.136 7.62939e-06ZM145.435 86.8214C146.856 86.8214 148.301 86.6318 149.759 86.242C163.339 82.6126 169.321 75.2768 167.057 65.0276C164.116 51.7088 147.949 36.8254 130.436 31.2241C122.638 45.9135 123.015 61.2226 126.866 71.274C130.631 81.1022 137.642 86.8214 145.435 86.8214ZM50.051 112.012C63.0696 112.012 78.4558 102.951 85.2294 91.9559C88.6472 86.4075 92.4662 75.8337 79.64 67.3535C72.43 62.5867 64.1558 60.7532 55.767 60.7064C44.0061 72.5667 35.8676 85.5324 34.1245 95.4522C32.969 102.03 34.6647 106.693 39.165 109.312C42.3714 111.178 46.1026 112.012 50.051 112.012Z" fill="#004339"/>
</g>
<defs>
<clipPath id="clip0_28_270">
<rect width="171" height="116" fill="white" transform="matrix(-1 0 0 -1 171.5 116)"/>
</clipPath>
</defs>
</svg>
