<svg width="172" height="116" viewBox="0 0 172 116" fill="none" xmlns="http://www.w3.org/2000/svg">
<g clip-path="url(#clip0_28_272)">
<path d="M13.8636 116L12.0462 112.445C25.1094 105.715 33.9037 97.2309 39.5003 88.3379C20.934 82.1254 4.26402 66.3579 1.05719 51.837C-1.66655 39.5038 5.68149 30.049 21.2173 25.8967C32.7706 22.8104 43.6169 29.6366 48.8487 43.2917C52.9584 54.0189 53.4679 70.2609 45.4977 85.8692C50.8814 87.1377 56.3028 87.4678 61.4366 86.5493C77.9387 83.6004 96.3168 73.7409 111.858 59.4982C111.966 59.3999 112.074 59.3004 112.181 59.2017C104.505 58.6156 96.9609 56.4724 90.171 51.9834C78.9177 44.5435 76.3809 33.3133 83.3858 21.9427C93.3164 5.82277 119.005 -5.97815 134.831 3.23125C140.842 6.72997 143.25 12.9577 141.795 21.2419C140.008 31.4112 132.609 43.6605 121.983 55.0603C145.924 53.0396 169.047 38.6127 169.377 38.4036L171.5 41.7834C170.022 42.7194 143.992 58.9477 117.775 59.3645C102.552 74.224 82.1215 86.9115 62.1339 90.4832C56.0806 91.5637 49.7155 91.1075 43.4733 89.5117C37.5691 99.3095 28.1125 108.659 13.8636 116ZM26.5649 29.1786C25.1443 29.1786 23.6989 29.3682 22.2411 29.758C8.66098 33.3874 2.67947 40.7232 4.94266 50.9724C7.88403 64.2912 24.0511 79.1746 41.5637 84.7759C49.3622 70.0865 48.9848 54.7774 45.134 44.726C41.3686 34.8978 34.3579 29.1786 26.5649 29.1786ZM121.949 3.98815C108.93 3.98815 93.5442 13.0493 86.7706 24.0441C83.3528 29.5925 79.5338 40.1663 92.36 48.6465C99.57 53.4133 107.844 55.2468 116.233 55.2936C127.994 43.4333 136.132 30.4676 137.876 20.5478C139.031 13.9702 137.335 9.30711 132.835 6.68786C129.629 4.82199 125.897 3.98815 121.949 3.98815Z" fill="#F8F9E9"/>
</g>
<defs>
<clipPath id="clip0_28_272">
<rect width="171" height="116" fill="white" transform="translate(0.5)"/>
</clipPath>
</defs>
</svg>
